PathFileType	4	(X/Y/Z)	E:\Qualisys_Data\Carbon_Farble_Plate\Data\Amateur_Runner\S14\T3\S14T3V12_c3d.trc
DataRate	CameraRate	NumFrames	NumMarkers	Units	OrigDataRate	OrigDataStartFrame	OrigNumFrames
200.000000	200.000000	4	39	mm	200.000000	0	327
Frame#	Time	LSHO			RSHO			LICST			RICST			LASIS			LHEEL			RASIS			LTROC			RTROC			SACR			LTH1			LSK4			LTH2			LTH3			RHM5			LSK2			LTH4			RTH1			LTOE			RTH2			RTH3			RTH4			LLEP			RLEP			LSK1			LSK3			RSK1			LHM5			RSK2			LFT1			RSK3			RSK4			LLME			RLME			RTOE			RHEEL			RFT1			RFT2			LFT2			
		X1	Y1	Z1	X2	Y2	Z2	X3	Y3	Z3	X4	Y4	Z4	X5	Y5	Z5	X6	Y6	Z6	X7	Y7	Z7	X8	Y8	Z8	X9	Y9	Z9	X10	Y10	Z10	X11	Y11	Z11	X12	Y12	Z12	X13	Y13	Z13	X14	Y14	Z14	X15	Y15	Z15	X16	Y16	Z16	X17	Y17	Z17	X18	Y18	Z18	X19	Y19	Z19	X20	Y20	Z20	X21	Y21	Z21	X22	Y22	Z22	X23	Y23	Z23	X24	Y24	Z24	X25	Y25	Z25	X26	Y26	Z26	X27	Y27	Z27	X28	Y28	Z28	X29	Y29	Z29	X30	Y30	Z30	X31	Y31	Z31	X32	Y32	Z32	X33	Y33	Z33	X34	Y34	Z34	X35	Y35	Z35	X36	Y36	Z36	X37	Y37	Z37	X38	Y38	Z38	X39	Y39	Z39	

1	0	-2614.9443359375	1485.83837890625	-451.4490051269531	-2682.904052734375	1474.785766601562	-164.4136657714844	-2689.838623046875	1034.536743164062	-453.4669494628906	-2670.5107421875	1037.017333984375	-182.1468353271484	-2654.544921875	980.3316650390625	-433.8508605957031	-3219.431396484375	355.0310974121094	-327.8177185058594	-2644.63671875	993.9279174804688	-205.2423553466797	-2805.321533203125	932.9451904296875	-474.2338256835938	-2770.419677734375	911.658935546875	-140.3397979736328	-2820.041259765625	1039.059814453125	-321.3180847167969	-2810.34130859375	698.054443359375	-470.7745971679688	-3089.063720703125	459.1609191894531	-408.2133483886719	-2881.48193359375	723.3140869140625	-441.6255187988281	-2831.41357421875	603.317626953125	-449.8314514160156	-2386.414794921875	143.5540466308594	-147.2589263916016	-3014.978271484375	522.3248291015625	-427.635498046875	-2904.001953125	627.6346435546875	-424.0152893066406	-2585.007568359375	725.072509765625	-153.0608367919922	-3186.184814453125	98.22691345214844	-373.915283203125	-2659.64013671875	701.4886474609375	-136.4505767822266	-2556.106201171875	632.3561401367188	-181.0180358886719	-2634.01611328125	605.6355590820312	-157.9474639892578	-2911.948486328125	553.1196899414062	-438.7744140625	-2584.70849609375	550.99072265625	-167.6491851806641	-2961.673583984375	460.7991638183594	-436.9815063476562	-3042.133544921875	396.7526245117188	-426.7013854980469	-2540.7451171875	438.0929565429688	-162.0046844482422	-3224.003173828125	167.0733947753906	-423.5369262695312	-2625.568115234375	418.7980651855469	-168.6066589355469	-3241.105224609375	336.1105651855469	-298.1299438476562	-2524.012939453125	336.5241088867188	-174.2972564697266	-2600.72119140625	325.2946166992188	-178.369384765625	-3196.51953125	314.9034423828125	-392.8136596679688	-2525.41552734375	155.2234039306641	-195.1539459228516	-2318.678955078125	190.1198425292969	-203.3621673583984	-2562.779296875	104.3174285888672	-254.7907409667969	-2533.1728515625	85.64839172363281	-281.1946716308594	-2555.71630859375	82.14435577392578	-231.408447265625	-3251.453857421875	346.658935546875	-348.0027770996094
2	0.005	-2599.836669921875	1483.3154296875	-450.7522888183594	-2667.992431640625	1472.3212890625	-163.8844146728516	-2674.78076171875	1032.161254882812	-453.0341491699219	-2656.043212890625	1033.635620117188	-181.3500061035156	-2638.915771484375	978.3048095703124	-433.7097473144531	-3206.738525390625	360.7131652832031	-329.9437255859375	-2629.462890625	991.7033081054688	-204.8204956054688	-2789.685302734375	930.069091796875	-474.4611206054688	-2755.974609375	909.0588989257812	-141.0326995849609	-2805.122314453125	1036.302368164062	-321.0069885253906	-2792.652587890625	695.169189453125	-471.3508911132812	-3072.078857421875	460.2289733886719	-407.9244995117188	-2863.712158203125	718.9331665039062	-442.110595703125	-2812.5380859375	599.4190673828125	-449.2106323242188	-2371.161865234375	142.1229858398438	-149.475341796875	-2996.666259765625	521.6712646484375	-428.177490234375	-2885.908447265625	623.6395874023438	-425.2268676757812	-2570.126708984375	722.1085815429688	-153.1173553466797	-3175.778564453125	102.9303894042969	-375.7187194824219	-2644.22900390625	698.5489501953125	-136.0873870849609	-2541.1279296875	630.5739135742188	-182.73193359375	-2618.201416015625	602.5437622070312	-158.6477661132812	-2893.232666015625	549.6502075195312	-439.5803527832031	-2569.354736328125	548.5186157226562	-168.482421875	-2945.23974609375	458.24462890625	-437.8079528808594	-3023.93212890625	394.9347839355469	-423.9109802246094	-2525.062744140625	435.6065979003906	-164.0961303710938	-3212.236083984375	171.6345520019531	-424.9835815429688	-2609.42431640625	416.4755554199219	-170.4558410644531	-3228.337890625	340.8676452636719	-297.9732055664062	-2507.261962890625	333.8346252441406	-176.3640594482422	-2584.333740234375	322.7225952148438	-180.0162353515625	-3182.581787109375	318.6478576660156	-392.3385009765625	-2510.2744140625	153.1889801025391	-197.2581176757812	-2304.125732421875	188.9365234375	-205.7362060546875	-2547.822021484375	102.4092330932617	-258.1044006347656	-2517.3154296875	83.27901458740234	-283.8482666015625	-2540.131591796875	79.35234069824219	-234.6296081542969	-3238.896728515625	352.1836242675781	-348.5823974609375
3	0.01	-2586.040771484375	1481.377685546875	-450.6501159667969	-2652.901611328125	1469.759155273438	-163.3316040039062	-2660.62890625	1030.287353515625	-453.0831909179688	-2640.91943359375	1030.76953125	-180.8353881835938	-2623.693359375	976.3613891601562	-433.638671875	-3193.03125	364.9596862792969	-329.9704895019531	-2614.276123046875	988.54638671875	-204.7879638671875	-2774.10791015625	927.1065673828124	-474.6906433105469	-2741.75390625	904.956787109375	-140.995849609375	-2790.421142578125	1033.555419921875	-320.9263305664062	-2774.49853515625	691.4732055664062	-471.434326171875	-3055.25732421875	461.6860961914062	-409.0463562011719	-2845.687744140625	714.4827880859375	-442.6520080566406	-2794.17529296875	596.6725463867188	-451.39501953125	-2357.4521484375	140.2109069824219	-152.2103271484375	-2977.91357421875	521.0198364257812	-428.9331359863281	-2867.408203125	619.186767578125	-426.2523498535156	-2554.488525390625	720.5155639648438	-153.0446166992188	-3164.638916015625	106.7200469970703	-376.1308898925781	-2628.31640625	695.9454956054688	-135.95947265625	-2525.06787109375	628.0552978515625	-183.0779571533203	-2602.216064453125	600.2833251953125	-159.8920288085938	-2874.225341796875	546.3155517578125	-440.979736328125	-2553.2294921875	546.4972534179688	-169.9461669921875	-2928.0654296875	456.111328125	-438.4342651367188	-3009.13818359375	395.4625854492188	-423.5865173339844	-2509.47412109375	433.1340942382812	-167.1309204101562	-3199.95947265625	176.7941284179688	-425.5237121582031	-2593.20166015625	413.9516296386719	-171.4946441650391	-3214.142578125	344.9252319335938	-297.5029907226562	-2492.218017578125	331.3088989257812	-178.7759857177734	-2569.372314453125	320.3201904296875	-182.1020202636719	-3169.13818359375	323.4660339355469	-392.7198181152344	-2495.6201171875	150.1231536865234	-200.0751190185547	-2289.497314453125	187.3402404785156	-208.8805694580078	-2533.150390625	99.82564544677734	-260.6369323730469	-2503.784423828125	81.1727294921875	-287.2871398925781	-2525.944580078125	76.69219207763672	-237.2141265869141	-3224.850830078125	356.7976684570312	-348.5718688964844
4	0.015	-2571.6064453125	1478.323852539062	-450.3689880371094	-2637.80859375	1466.8623046875	-162.6104888916016	-2645.843505859375	1027.777709960938	-452.8479614257812	-2625.445556640625	1028.201049804688	-180.9865570068359	-2609.020751953125	974.4074096679688	-433.8174743652344	-3177.715576171875	367.8880615234375	-327.4500732421875	-2599.19189453125	986.07080078125	-204.0563659667969	-2758.120849609375	923.5840454101562	-474.6704406738281	-2727.01318359375	901.3883056640624	-141.1947784423828	-2775.630859375	1030.212280273438	-320.2360534667969	-2755.697998046875	688.2116088867188	-471.4488830566406	-3037.45654296875	462.1664428710938	-409.3723754882812	-2827.218017578125	709.3096923828125	-441.9159545898438	-2774.654296875	592.2806396484375	-452.3411254882812	-2344.245361328125	137.5083618164062	-155.2080841064453	-2959.0	519.8680419921875	-430.4537658691406	-2848.85498046875	614.1292724609375	-427.2368469238281	-2539.032470703125	718.331298828125	-152.9424133300781	-3152.619384765625	110.566535949707	-376.8968811035156	-2611.920166015625	693.2738647460938	-136.2694549560547	-2508.594482421875	626.7439575195312	-184.2736511230469	-2586.08642578125	598.4287109375	-160.9002685546875	-2854.36572265625	542.3035888671875	-441.8424682617188	-2536.69580078125	544.5120239257812	-171.6539764404297	-2910.62451171875	453.97900390625	-439.6654052734375	-2993.81689453125	395.48876953125	-424.7166137695312	-2494.734130859375	429.9819030761719	-166.8157653808594	-3187.140869140625	182.2779541015625	-426.1311950683594	-2578.1328125	411.5506286621094	-173.6271514892578	-3200.32373046875	349.5375671386719	-297.7720031738281	-2477.0078125	328.1383361816406	-180.4940948486328	-2553.945556640625	317.3992614746094	-183.8019104003906	-3154.6005859375	327.19091796875	-392.5638732910156	-2482.279541015625	147.6269836425781	-203.0449829101562	-2276.60595703125	184.7064666748047	-211.4438018798828	-2519.9462890625	96.75457763671876	-263.4815063476562	-2490.116943359375	78.28115844726562	-289.6237487792969	-2513.053955078125	73.98682403564453	-239.8811950683594	-3211.145263671875	363.0362243652344	-349.5942687988281
